PathFileType	4	(X/Y/Z)	G:\Shared drives\HPL_Drive\Pi-Spi Study\20230118_AMCsubject1\Trimmed_left_horiz_abd01_rotated.trc
DataRate	CameraRate	NumFrames	NumMarkers	Units	OrigDataRate	OrigDataStartFrame	OrigNumFrames
200.00	200.00	       12	35	mm	200.00	176	       200
Frame#	Time	C7			Sternum			r_AMC1			r_AMC2			r_AMC3			l_AMC1			l_AMC2			l_AMC3			PX			T8			r_humerous			r_elbow_medial			r_elbow_lateral			r_forearm			r_wrist_radius			r_wrist_ulna			r_MCP_1			r_MCP_3			l_humerous			l_elbow_medial			l_elbow_lateral			l_forearm			l_wrist_radius			l_wrist_ulna			l_MCP_1			l_MCP_3			r_ASIS			r_PSIS			l_ASIS			l_PSIS			r_IC			l_IC			TS			AI			AA			
		X1	Y1	Z1	X2	Y2	Z2	X3	Y3	Z3	X4	Y4	Z4	X5	Y5	Z5	X6	Y6	Z6	X7	Y7	Z7	X8	Y8	Z8	X9	Y9	Z9	X10	Y10	Z10	X11	Y11	Z11	X12	Y12	Z12	X13	Y13	Z13	X14	Y14	Z14	X15	Y15	Z15	X16	Y16	Z16	X17	Y17	Z17	X18	Y18	Z18	X19	Y19	Z19	X20	Y20	Z20	X21	Y21	Z21	X22	Y22	Z22	X23	Y23	Z23	X24	Y24	Z24	X25	Y25	Z25	X26	Y26	Z26	X27	Y27	Z27	X28	Y28	Z28	X29	Y29	Z29	X30	Y30	Z30	X31	Y31	Z31	X32	Y32	Z32	X33	Y33	Z33	X34	Y34	Z34	X35	Y35	Z35	

176	0.875	234.9535	1374.2455	-198.1833	371.3486	1323.2216	-217.2748	241.1088	1327.8674	-59.3938	275.8591	1333.1954	-24.0055	295.121	1366.6325	-47.6983	195.3725	1355.4625	-313.1829	216.9387	1374.8022	-355.5083	247.5046	1401.5839	-319.8274	430.2278	1126.99	-234.9427	195.254	1198.5695	-202.8839	347.6589	1150.68	-3.3034	274.3352	1008.6251	-19.0202	295.3768	1022.3357	43.5408	353.1414	868.4685	67.3141	401.5849	805.2868	46.3858	355.9857	799.4811	70.1071	426.1301	723.8597	59.895	379.1941	719.973	79.3832	267.0424	1347.2611	-507.6284	222.0494	1258.6529	-615.361	190.8578	1300.2317	-622.5547	163.824	1312.9662	-778.3005	168.8925	1324.6283	-854.9456	162.1783	1282.0057	-854.0073	151.0752	1325.5927	-931.4184	152.1384	1281.9276	-932.4307	390.1338	903.7083	-97.981	199.1565	932.7538	-168.4826	375.7909	890.3391	-354.2475	193.9799	927.108	-270.3818	314.2974	967.5544	-62.2894	290.4006	942.8716	-385.5918	139.1951	1299.2759	-246.8244	151.555	1202.2424	-272.5087	143.1943	1340.5483	-379.0497
177	0.88	234.9781	1374.2532	-198.167	371.3851	1323.2623	-217.2584	241.1168	1327.8621	-59.386	275.8757	1333.2214	-24.0344	295.1316	1366.6471	-47.7041	195.4465	1355.4659	-313.226	216.999	1374.8129	-355.5074	247.5441	1401.5907	-319.832	430.2582	1127.0077	-234.8978	195.2367	1198.6133	-202.8923	347.6652	1150.6929	-3.2911	274.3105	1008.6309	-19.0153	295.3437	1022.3135	43.5495	353.1153	868.4371	67.342	401.0012	805.1212	45.9319	355.9665	799.4764	70.0887	426.109	723.861	59.9071	379.1253	720.0297	79.4206	267.1703	1347.2203	-507.6495	222.0316	1258.7043	-615.3527	190.8647	1300.2666	-622.5578	163.8628	1313.0156	-778.3341	168.9099	1324.6698	-854.9381	162.2316	1282.0783	-854.0375	151.1204	1325.6405	-931.4259	152.173	1281.9955	-932.4307	390.1229	903.7183	-97.9041	199.1603	932.7571	-168.492	375.8273	890.3389	-354.2436	194.0215	927.1161	-270.38	314.333	967.5608	-62.3014	290.4893	942.9095	-385.5653	139.2419	1299.296	-246.867	151.5988	1202.283	-272.4827	143.2075	1340.5041	-379.0805
178	0.885	235.0272	1374.2479	-198.1681	371.4233	1323.2349	-217.2419	241.1137	1327.8637	-59.3908	275.8669	1333.2432	-24.0421	295.1307	1366.6359	-47.6872	195.4878	1355.4554	-313.2197	217.0277	1374.8234	-355.5306	247.6238	1401.5759	-319.833	430.3244	1127.0198	-234.9098	195.2546	1198.6006	-202.8956	347.6579	1150.7006	-3.2662	274.3319	1008.6353	-19.0172	295.3444	1022.3314	43.5458	353.1081	868.4707	67.3481	401.5745	805.2862	46.4265	355.972	799.4639	70.0965	426.1257	723.8555	59.8965	379.1062	719.9962	79.4267	267.2061	1347.189	-507.6298	222.0045	1258.7307	-615.3411	190.8819	1300.3018	-622.579	163.8974	1313.0795	-778.3388	169.0028	1324.7217	-854.9363	162.2773	1282.1299	-854.0452	151.1727	1325.7167	-931.4232	152.2135	1282.062	-932.4417	390.1095	903.6786	-97.9127	199.1871	932.7447	-168.4975	375.8574	890.3162	-354.2044	194.0238	927.1168	-270.4127	314.3521	967.6266	-62.3027	290.4844	942.9543	-385.5908	139.2611	1299.2985	-246.9007	151.6197	1202.2117	-272.5189	143.2339	1340.4609	-379.1189
179	0.89	235.0612	1374.2504	-198.159	371.4539	1323.22	-217.2197	241.1256	1327.8645	-59.3795	275.8503	1333.2622	-24.0455	295.1133	1366.648	-47.6929	195.5527	1355.4678	-313.2255	217.0811	1374.8301	-355.4962	247.6752	1401.5785	-319.8364	430.3448	1127.0035	-234.8658	195.2906	1198.5887	-202.9243	347.6913	1150.6669	-3.2804	274.3395	1008.6301	-19.0231	295.3517	1022.3321	43.5426	353.0793	868.4866	67.3332	401.5961	805.2841	46.3843	355.8869	799.5513	70.0907	426.055	723.9357	59.9118	379.0935	720.0556	79.3941	267.2714	1347.2061	-507.6779	222.0094	1258.769	-615.318	190.9021	1300.3112	-622.5816	163.937	1313.1158	-778.369	169.0142	1324.7797	-854.9411	162.3295	1282.1742	-854.0922	151.205	1325.7982	-931.4166	152.2548	1282.1552	-932.4671	390.1234	903.656	-97.8847	199.1917	932.7527	-168.4978	375.9038	890.3336	-354.1969	194.0685	927.1137	-270.4083	314.3743	967.5875	-62.3011	290.5496	942.9128	-385.5491	139.2627	1299.3031	-246.9292	151.6406	1202.234	-272.4442	143.2824	1340.4202	-379.1718
180	0.895	235.105	1374.2556	-198.1669	371.4945	1323.2175	-217.2305	241.1011	1327.8827	-59.3926	275.827	1333.3038	-24.0622	295.1013	1366.6603	-47.7222	195.5972	1355.4736	-313.2103	217.1313	1374.8206	-355.4995	247.7253	1401.5477	-319.8424	430.3596	1126.995	-234.8396	195.2903	1198.6096	-202.9183	347.6831	1150.7084	-3.2715	274.3152	1008.6472	-19.0539	295.336	1022.3726	43.5614	353.0449	868.5018	67.335	401.5571	805.3013	46.4321	355.912	799.4947	70.0447	426.0396	723.9728	59.9307	379.005	720.109	79.4177	267.3598	1347.1482	-507.6805	222.0178	1258.8137	-615.2938	190.9217	1300.3278	-622.5919	163.9775	1313.1547	-778.3797	169.0718	1324.8306	-854.9429	162.393	1282.2261	-854.1224	151.2543	1325.8644	-931.4386	152.3188	1282.2388	-932.493	390.1174	903.6657	-97.8592	199.1861	932.7615	-168.5068	375.9512	890.3282	-354.2102	194.0876	927.1198	-270.4356	314.4298	967.5615	-62.3271	290.5609	942.9907	-385.5421	139.3056	1299.297	-246.9578	151.7116	1202.2263	-272.5349	143.3083	1340.3856	-379.1964
181	0.9	235.1409	1374.244	-198.1532	371.5007	1323.1959	-217.203	241.1213	1327.8898	-59.4165	275.8833	1333.2494	-24.0977	295.109	1366.6765	-47.6915	195.6343	1355.458	-313.2278	217.1579	1374.8193	-355.4961	247.7866	1401.5405	-319.8259	430.3859	1126.9866	-234.8694	195.2991	1198.5992	-202.924	347.2223	1150.46	-3.7094	274.3232	1008.6618	-19.0611	295.3116	1022.3669	43.5209	353.0772	868.4826	67.3117	401.5622	805.353	46.4105	355.9262	799.4697	70.0463	425.9982	723.9841	59.9523	379.0488	720.0521	79.3872	267.3752	1347.1333	-507.6539	222.029	1258.8478	-615.2856	190.9373	1300.3579	-622.6055	163.9981	1313.187	-778.3759	169.1317	1324.8962	-854.9544	162.4579	1282.2908	-854.1519	151.2968	1325.9323	-931.4578	152.3851	1282.302	-932.5176	390.1956	903.6934	-97.8538	199.1988	932.7541	-168.5099	376.0031	890.3201	-354.149	194.1061	927.1165	-270.4802	314.3632	967.5817	-62.276	290.4682	942.9445	-385.6568	139.3451	1299.3058	-247.0004	151.7033	1202.205	-272.4287	143.3591	1340.3315	-379.2694
182	0.905	235.1674	1374.2618	-198.1392	371.5695	1323.2126	-217.1698	241.1136	1327.9102	-59.4453	275.8444	1333.2701	-24.0952	295.0932	1366.7154	-47.7259	195.6602	1355.4681	-313.192	217.1756	1374.8234	-355.4886	247.8507	1401.5356	-319.8358	430.4178	1126.9868	-234.8509	195.3185	1198.5927	-202.9401	347.6659	1150.7397	-3.2797	274.3363	1008.6818	-19.0795	295.2908	1022.3837	43.5234	353.1067	868.4925	67.2753	401.5393	805.355	46.4098	355.9049	799.4989	70.0511	426.0014	724.0315	59.9706	379.0069	720.1149	79.3815	267.4106	1347.1473	-507.6773	222.0598	1258.8977	-615.2935	190.9648	1300.3833	-622.5992	164.0422	1313.2395	-778.3876	169.1684	1324.9533	-854.9725	162.4863	1282.3801	-854.1599	151.3575	1325.9867	-931.4763	152.4325	1282.395	-932.4774	390.1734	903.6587	-97.8282	199.2214	932.7577	-168.5371	376.0379	890.309	-354.1595	194.1269	927.1412	-270.4774	314.3807	967.5966	-62.3003	290.695	943.0106	-385.5753	139.3515	1299.3075	-247.019	151.7024	1202.1986	-272.395	143.3808	1340.2703	-379.2965
183	0.91	235.2061	1374.2537	-198.1515	371.5609	1323.2117	-217.1732	241.1229	1327.92	-59.473	275.8548	1333.2848	-24.127	295.105	1366.7377	-47.7593	195.6905	1355.4833	-313.1879	217.2192	1374.8243	-355.4669	247.8743	1401.5032	-319.8308	430.4543	1126.9772	-234.8035	195.3443	1198.6126	-202.945	347.6758	1150.7551	-3.2955	274.3041	1008.6885	-19.0946	295.3123	1022.4117	43.4852	353.0442	868.5311	67.3024	401.5542	805.3677	46.377	355.8413	799.5562	70.0521	426.0147	723.9929	59.9111	378.9447	720.1494	79.3483	267.3929	1347.171	-507.6467	222.064	1258.9729	-615.2865	190.9712	1300.4303	-622.6267	164.0977	1313.2664	-778.4117	169.2287	1325.0308	-854.9811	162.5536	1282.4106	-854.1837	151.4315	1326.068	-931.494	152.5077	1282.4635	-932.5488	390.1686	903.6523	-97.8148	199.2276	932.7428	-168.5249	376.1072	890.2994	-354.1667	194.1285	927.1298	-270.4874	314.4417	967.6089	-62.3445	290.8105	943.0175	-385.5975	139.3646	1299.3138	-247.0414	151.7526	1202.1643	-272.3461	143.4061	1340.2336	-379.3603
184	0.915	235.2341	1374.2506	-198.1349	371.5742	1323.1642	-217.169	241.1247	1327.9082	-59.4798	275.8472	1333.2938	-24.1288	295.08	1366.7555	-47.7706	195.7224	1355.4666	-313.1675	217.2334	1374.8217	-355.4596	247.9069	1401.4969	-319.8299	430.4815	1126.9795	-234.8332	195.3339	1198.5907	-202.9393	347.6412	1150.7747	-3.2742	274.3131	1008.7225	-19.12	295.2484	1022.4119	43.4797	353.0547	868.5532	67.2691	401.5575	805.393	46.3614	355.8291	799.5638	70.0133	426.0498	723.9911	59.9194	378.9156	720.1767	79.3567	267.3881	1347.2369	-507.6533	222.0693	1259.0433	-615.2698	191.0145	1300.5	-622.643	164.1199	1313.3644	-778.4144	169.2921	1325.1066	-855.0026	162.5831	1282.5161	-854.2144	151.4728	1326.1569	-931.5082	152.5769	1282.5751	-932.5784	390.1518	903.6221	-97.785	199.2343	932.7548	-168.5296	376.0333	890.2383	-354.1939	194.1675	927.1274	-270.5168	314.3888	967.5691	-62.3099	290.8355	942.97	-385.5717	139.3955	1299.3209	-247.0468	151.7898	1202.1728	-272.369	143.4259	1340.2042	-379.3613
185	0.92	235.2703	1374.248	-198.1471	371.6437	1323.1986	-217.2026	241.1378	1327.936	-59.5376	275.8626	1333.3192	-24.1755	295.0685	1366.7826	-47.7507	195.753	1355.4805	-313.1434	217.2317	1374.8212	-355.4527	247.9435	1401.4789	-319.8235	430.538	1126.9877	-234.8283	195.367	1198.5916	-202.958	347.6534	1150.7964	-3.3071	274.2683	1008.7542	-19.133	295.2534	1022.441	43.456	352.9276	868.53	67.2223	401.5431	805.4262	46.3653	355.8092	799.6215	70.0156	426.0217	723.986	59.9208	378.9454	720.1932	79.3002	267.4128	1347.2168	-507.6511	222.0926	1259.0977	-615.2913	191.0253	1300.5656	-622.6769	164.1727	1313.4228	-778.4341	169.371	1325.1625	-855.0082	162.628	1282.5836	-854.2097	151.5553	1326.2402	-931.5136	152.6124	1282.6901	-932.6025	390.1455	903.5842	-97.7884	199.2471	932.7468	-168.5604	376.177	890.2994	-354.1318	194.1955	927.1464	-270.5128	314.4033	967.5767	-62.3433	290.8809	942.9855	-385.5591	139.432	1299.3112	-247.0482	151.8085	1202.1875	-272.2976	143.4056	1340.1388	-379.3757
186	0.925	235.3095	1374.2631	-198.1183	371.6555	1323.1748	-217.1695	241.1617	1327.9518	-59.5393	275.8373	1333.3516	-24.1827	295.1104	1366.7662	-47.8131	195.7758	1355.4712	-313.1362	217.2558	1374.8279	-355.4399	247.9719	1401.4863	-319.8178	430.5893	1126.9791	-234.819	195.3933	1198.6111	-202.9627	347.6338	1150.8304	-3.3081	274.2887	1008.7485	-19.149	295.2335	1022.4509	43.4499	353.001	868.5759	67.263	401.5292	805.4634	46.3376	355.8248	799.5651	69.9751	426.0128	724.0237	59.8735	379.009	720.1294	79.3171	267.4209	1347.299	-507.6305	222.1194	1259.1931	-615.2883	191.0494	1300.6262	-622.6809	164.2341	1313.5363	-778.4707	169.4278	1325.2465	-855.0186	162.6572	1282.6824	-854.2546	151.6111	1326.3461	-931.5062	152.6717	1282.7406	-932.6161	390.2024	903.6214	-97.7584	199.2629	932.7365	-168.5567	376.1781	890.2932	-354.1352	194.2098	927.1494	-270.5412	314.4227	967.5998	-62.3554	290.9413	943.0437	-385.5602	139.4508	1299.2991	-247.024	151.8638	1202.2037	-272.2621	143.4054	1340.1099	-379.411
187	0.93	235.348	1374.2736	-198.1249	371.6375	1323.1728	-217.1921	241.1519	1327.9642	-59.5624	275.8394	1333.3623	-24.1856	295.0891	1366.7705	-47.7949	195.7658	1355.4729	-313.1414	217.2688	1374.8321	-355.4318	247.97	1401.4662	-319.8263	430.6088	1127	-234.8472	195.4401	1198.6137	-202.9819	347.6822	1150.7732	-3.3344	274.2934	1008.8024	-19.1834	295.1805	1022.4424	43.4563	352.9348	868.5638	67.1963	401.5275	805.3962	46.3118	355.8053	799.6041	69.9467	426.0198	724.0444	59.8595	378.9873	720.1114	79.3047	267.3975	1347.3522	-507.6262	222.135	1259.2789	-615.302	191.0865	1300.6809	-622.7138	164.2962	1313.6327	-778.4923	169.5048	1325.3453	-855.0529	162.6893	1282.7617	-854.2689	151.6968	1326.469	-931.5064	152.7515	1282.8259	-932.6179	390.243	903.58	-97.7564	199.2673	932.7477	-168.5905	376.2422	890.2943	-354.1274	194.5374	927.059	-270.5998	314.4938	967.5893	-62.374	291.0235	943.0115	-385.5748	139.4788	1299.302	-247.0179	151.8854	1202.1503	-272.2586	143.3876	1340.1034	-379.3645
